<svg xmlns="http://www.w3.org/2000/svg" width="1200" height="630" viewBox="0 0 1200 630" role="img" aria-label="Dory Sport">
  <defs>
    <linearGradient id="bg" x1="0" y1="0" x2="1" y2="1">
      <stop offset="0%" stop-color="#fcf8f2"/>
      <stop offset="100%" stop-color="#f2e7d6"/>
    </linearGradient>
  </defs>
  <rect width="1200" height="630" fill="url(#bg)"/>
  <circle cx="930" cy="120" r="180" fill="#e6d7bf" opacity="0.4"/>
  <circle cx="180" cy="520" r="160" fill="#d9c2a1" opacity="0.28"/>
  <rect x="70" y="80" width="1060" height="470" rx="36" fill="#ffffff" opacity="0.75"/>
  <text x="110" y="160" font-family="Georgia, 'Times New Roman', serif" font-size="34" fill="#7f8a69" letter-spacing="8">PUERTO MONTT · BORDADOS · CONFECCIÓN</text>
  <text x="110" y="300" font-family="Georgia, 'Times New Roman', serif" font-size="104" fill="#10212b">Dory Sport</text>
  <text x="110" y="375" font-family="Arial, sans-serif" font-size="34" fill="#42515c">Bordados y confección personalizada para personas, pymes y empresas.</text>
  <rect x="110" y="430" width="290" height="72" rx="36" fill="#10212b"/>
  <text x="155" y="476" font-family="Arial, sans-serif" font-size="28" fill="#f7f2e8">WhatsApp +56 9 8406 2107</text>
  <circle cx="962" cy="314" r="112" fill="none" stroke="#7f8a69" stroke-width="8"/>
  <path d="M900 385V250h48c37 0 60 25 60 67 0 44-23 68-60 68h-48Zm40-30h10c20 0 32-12 32-38 0-24-12-37-32-37h-10v75Z" fill="#7f8a69"/>
  <path d="M878 255 936 197" stroke="#7f8a69" stroke-width="10" stroke-linecap="round"/>
  <circle cx="940" cy="194" r="9" fill="none" stroke="#7f8a69" stroke-width="6"/>
</svg>
